<svg id="Layer_1" data-name="Layer 1" xmlns="http://www.w3.org/2000/svg" viewBox="0 0 31.54 31.15">
    <defs>
        <style>.cls-1{fill:#fbfdfd;}.cls-2{fill:#00aad2;}</style>
    </defs>
    <title>fav number</title>
    <path class="cls-1" d="M.25,16.33H.16c0-5.21,0-10.42,0-15.62C.16.58.06.41.25.33a.86.86,0,0,1,.1.16A1.78,1.78,0,0,1,.4,1.1V15.57A1,1,0,0,1,.25,16.33Z" transform="translate(-0.13 -0.33)"/>
    <path class="cls-2" d="M.27.43H16V6.16S8.32,4.55,4.7,3.76c-.47-.1-.56,0-.55.38q0,5.28,0,10.54a7.08,7.08,0,0,0,.12,2.15A2.38,2.38,0,0,0,5,18c2.62,2.29,5.4,4.43,8.2,6.55a3.48,3.48,0,0,0,2.84.61v6.37c-.91-.75-1.92-1.69-2.84-2.51-3.91-3.5-7.77-7-11.71-10.51A3,3,0,0,1,.25,16.33V1C.25.78.26.61.27.43Z" transform="translate(-0.13 -0.33)"/>
    <path class="cls-2" d="M16,.43H31.66c0,1.28,0,2.57,0,3.85,0,3.83,0,7.65,0,11.48A6.65,6.65,0,0,1,31.55,17,1.56,1.56,0,0,1,31,18c-3.33,2.84-6.49,5.81-9.72,8.73-1.75,1.58-3.47,3.17-5.25,4.8,0-2.15,0-4.25,0-6.36a3.19,3.19,0,0,0,2.88-.71q4-3,7.76-6.19a3.15,3.15,0,0,0,1.2-2.65c0-3.79,0-7.58,0-11.38,0-.58,0-.58-.66-.44L16,6.16Z" transform="translate(-0.13 -0.33)"/>
</svg>